HIERARCHY
ROOT Hips
{
	OFFSET -3.958830 18.904000 13.208200
	CHANNELS 6 Xposition Yposition Zposition Zrotation Yrotation Xrotation 
	JOINT LHipJoint
	{
		OFFSET 0.000000 0.000000 0.000000
		CHANNELS 3 Zrotation Yrotation Xrotation
		JOINT LeftUpLeg
		{
			OFFSET 1.800000 -1.400000 0.085000
			CHANNELS 3 Zrotation Yrotation Xrotation
			JOINT LeftLeg
			{
				OFFSET 2.215000 -6.000000 0.000000
				CHANNELS 3 Zrotation Yrotation Xrotation
				JOINT LeftFoot
				{
					OFFSET 2.500000 -6.900000 0.000000
					CHANNELS 3 Zrotation Yrotation Xrotation
					JOINT LeftToeBase
					{
						OFFSET 0.200000 -0.500000 1.950000
						CHANNELS 3 Zrotation Yrotation Xrotation
						End Site
						{
							OFFSET 0.000000 0.000000 0.000000
						}
					}
				}
			}
		}
	}
	JOINT RHipJoint
	{
		OFFSET 0.000000 0.000000 0.000000
		CHANNELS 3 Zrotation Yrotation Xrotation
		JOINT RightUpLeg
		{
			OFFSET -1.800000 -1.400000 0.085000
			CHANNELS 3 Zrotation Yrotation Xrotation
			JOINT RightLeg
			{
				OFFSET -2.215000 -6.000000 0.000000
				CHANNELS 3 Zrotation Yrotation Xrotation
				JOINT RightFoot
				{
					OFFSET -2.500000 -6.900000 0.000000
					CHANNELS 3 Zrotation Yrotation Xrotation
					JOINT RightToeBase
					{
						OFFSET -0.200000 -0.500000 1.950000
						CHANNELS 3 Zrotation Yrotation Xrotation
						End Site
						{
							OFFSET 0.000000 0.000000 0.000000
						}
					}
				}
			}
		}
	}
	JOINT LowerBack
	{
		OFFSET 0.000000 0.000000 0.000000
		CHANNELS 3 Zrotation Yrotation Xrotation
		JOINT Spine
		{
			OFFSET -0.087000 1.940000 -0.288900
			CHANNELS 3 Zrotation Yrotation Xrotation
			JOINT Spine1
			{
				OFFSET 0.000000 1.950000 0.060000
				CHANNELS 3 Zrotation Yrotation Xrotation
				JOINT Neck
				{
					OFFSET 0.000000 0.000000 0.000000
					CHANNELS 3 Zrotation Yrotation Xrotation
					JOINT Neck1
					{
						OFFSET 0.000000 1.600000 0.340000
						CHANNELS 3 Zrotation Yrotation Xrotation
						JOINT Head
						{
							OFFSET 0.000000 1.667000 -0.240000
							CHANNELS 3 Zrotation Yrotation Xrotation
							End Site
							{
								OFFSET 0.000000 0.000000 0.000000
							}
						}
					}
				}
				JOINT LeftShoulder
				{
					OFFSET 0.000000 0.000000 0.000000
					CHANNELS 3 Zrotation Yrotation Xrotation
					JOINT LeftArm
					{
						OFFSET 2.700000 1.550000 -0.730000
						CHANNELS 3 Zrotation Yrotation Xrotation
						JOINT LeftForeArm
						{
							OFFSET 5.450000 0.000000 0.000000
							CHANNELS 3 Zrotation Yrotation Xrotation
							JOINT LeftHand
							{
								OFFSET 3.450000 0.000000 0.000000
								CHANNELS 3 Zrotation Yrotation Xrotation
								JOINT LeftHandIndex1
								{
									OFFSET 0.750000 0.000000 0.000000
									CHANNELS 3 Zrotation Yrotation Xrotation
									End Site
									{
										OFFSET 0.000000 0.000000 0.000000
									}
								}
							}
						}
					}
				}
				JOINT RightShoulder
				{
					OFFSET 0.000000 0.000000 0.000000
					CHANNELS 3 Zrotation Yrotation Xrotation
					JOINT RightArm
					{
						OFFSET -2.700000 1.550000 -0.730000
						CHANNELS 3 Zrotation Yrotation Xrotation
						JOINT RightForeArm
						{
							OFFSET -5.450000 0.000000 0.000000
							CHANNELS 3 Zrotation Yrotation Xrotation
							JOINT RightHand
							{
								OFFSET -3.450000 0.000000 0.000000
								CHANNELS 3 Zrotation Yrotation Xrotation
								JOINT RightHandIndex1
								{
									OFFSET -0.750000 0.000000 0.000000
									CHANNELS 3 Zrotation Yrotation Xrotation
									End Site
									{
										OFFSET 0.000000 0.000000 0.000000
									}
								}
							}
						}
					}
				}
			}
		}
	}
}
MOTION
Frames: 6
Frame Time: 0.016667
0.513010 16.744380 -3.012110 -8.660646 -2.110179 3.318456 -15.642233 14.425057 4.189625 29.322780 -0.707957 -14.481707 4.709717 4.122217 0.112811 0.106711 4.885008 2.891925 -0.384670 -0.533570 -0.411110 17.572766 -9.267509 3.021408 -2.074985 0.725436 -7.034547 13.298711 -4.562482 3.798206 0.088333 -3.351445 3.555501 -0.249680 0.504480 -0.178240 -1.973441 -6.523042 -8.918915 14.804490 -4.860728 20.610773 -5.098575 6.949852 -20.214700 2.426494 -3.940462 -20.966537 -11.463746 9.558788 42.061600 2.931760 4.904580 14.199810 33.435488 7.702602 2.312737 56.150580 0.158427 7.346485 28.991495 10.684679 1.695807 -4.446226 2.381691 0.121580 0.267170 -0.437150 0.027360 -34.397723 -1.994554 1.847861 -56.792412 -13.525561 15.680753 -12.578382 14.581355 1.067643 2.505126 -2.021473 -0.388930 0.189400 0.300140 -0.055720 
0.519280 16.739120 -3.011590 -8.752110 -2.301716 3.411996 -15.674073 14.444483 4.213901 29.472758 -0.629159 -14.430161 4.566676 4.187139 0.017724 0.107765 4.956117 2.873464 -0.399540 -0.556870 -0.420130 17.557585 -9.190850 2.992617 -2.065769 0.762510 -6.990592 13.270318 -4.504834 3.637714 0.099844 -3.340640 3.563822 -0.254840 0.523690 -0.179980 -1.915880 -6.715409 -8.928688 14.542204 -4.796893 20.624390 -4.726447 7.653725 -19.962601 2.149683 -3.873773 -21.091755 -11.326542 9.897973 41.826411 3.095230 5.216380 14.536760 34.010727 7.550659 2.276605 56.271622 0.482317 7.195646 27.351432 10.531833 1.362401 -4.435298 2.350663 0.119850 0.279110 -0.452900 0.025480 -34.279828 -2.251952 1.704985 -56.940934 -13.197152 15.503514 -12.645275 14.199414 1.043265 2.475477 -1.999836 -0.403720 0.196660 0.312600 -0.059830 
0.527660 16.736200 -3.006350 -8.952460 -2.753791 3.723994 -15.739051 14.495857 4.262520 29.715107 -0.496984 -14.405255 4.368862 4.293299 -0.143538 0.105444 5.075587 2.842786 -0.430360 -0.599320 -0.434170 17.521456 -9.046995 2.938471 -1.942177 0.861073 -7.064918 13.221128 -4.407529 3.471252 0.123750 -3.300951 3.578935 -0.264520 0.557820 -0.187320 -1.790418 -7.109659 -8.964233 13.938063 -4.724520 20.541193 -4.025717 9.255332 -19.672933 1.651058 -3.663836 -21.430510 -10.932555 10.468239 41.616060 3.371650 5.819820 15.057340 35.117590 7.491995 1.956186 56.512067 0.526109 6.657132 24.156660 10.130108 0.680920 -4.367698 2.294944 0.120120 0.297520 -0.478940 0.016780 -34.013119 -3.089353 1.415739 -57.316590 -12.593153 15.673861 -13.045217 14.500317 1.042991 2.471644 -1.984193 -0.434370 0.213690 0.336400 -0.066880 
0.532710 16.740310 -3.002390 -8.898779 -3.683052 3.848131 -15.817847 14.599031 4.279493 29.718067 -0.283906 -13.962058 4.108456 4.436684 -0.281393 0.104366 5.202300 2.810646 -0.463100 -0.639490 -0.435290 17.473830 -8.887047 2.852974 -2.104017 0.951909 -7.023325 13.141379 -4.304475 3.363317 0.144179 -3.244336 3.596837 -0.273320 0.578480 -0.214400 -1.632985 -7.639979 -8.991222 12.567015 -4.586309 20.609256 -2.992230 11.464826 -19.091621 1.048180 -3.457598 -22.021519 -10.671675 11.421861 41.732837 3.940910 6.705070 15.250690 36.827500 7.212920 1.582153 56.550589 1.167090 6.057387 20.002898 9.125940 -0.134368 -4.218983 2.222793 0.132220 0.299450 -0.497870 -0.004900 -33.732672 -3.994462 0.986203 -57.586777 -11.528922 15.330750 -13.189285 13.981055 1.018154 2.439232 -1.920049 -0.473010 0.243490 0.360240 -0.081870 
0.534070 16.746310 -3.014040 -8.587101 -4.271348 3.317333 -15.944367 14.729435 4.287484 29.671187 0.032796 -13.285783 3.731531 4.627118 -0.458044 0.105908 5.372614 2.752761 -0.495840 -0.685020 -0.440810 17.400424 -8.665520 2.709461 -2.455695 0.918075 -6.378234 12.942047 -4.228186 3.150514 0.143623 -3.213597 3.606545 -0.290290 0.582790 -0.230040 -1.402121 -8.381671 -9.052425 10.066206 -4.333947 21.409163 -1.468000 14.594566 -17.671101 0.737493 -3.108600 -22.990593 -10.305656 12.310979 42.285536 4.403030 7.508390 15.073020 39.120076 6.721722 1.536636 55.521293 3.198427 5.303800 16.499529 8.301769 -0.751358 -4.159150 2.093147 0.166550 0.289920 -0.499380 -0.029050 -33.828032 -4.861581 0.620335 -57.362527 -11.183438 14.283213 -13.318026 11.791265 0.956123 2.372483 -1.785974 -0.505560 0.265170 0.391950 -0.101600 
0.531620 16.746400 -3.031000 -8.286005 -4.877938 2.697498 -16.129280 14.865550 4.304221 29.857714 0.487877 -12.623522 3.137672 4.941548 -0.591445 0.072557 5.680626 2.655420 -0.562590 -0.791760 -0.466300 17.319076 -8.311458 2.467934 -2.639673 0.896386 -5.574405 12.497777 -4.177538 3.189486 0.162630 -3.176708 3.629408 -0.320950 0.619460 -0.257050 -1.118327 -9.353861 -9.219173 6.838061 -4.059072 22.197741 0.700017 18.815174 -15.479254 0.248352 -2.292370 -23.763022 -9.299241 12.966147 42.549298 4.828270 8.007280 15.118890 41.832350 5.707665 1.704030 54.808746 6.430908 4.805904 10.936217 7.490246 -1.764710 -3.944963 1.933239 0.222180 0.295750 -0.534580 -0.063250 -33.120918 -5.878006 0.382050 -57.258163 -11.596186 13.524471 -15.393894 9.630744 0.942272 2.371589 -1.569990 -0.582830 0.311890 0.461150 -0.140080 
